# xmcd
#
# Track frame offsets: 
#        150
#        20605
#        38237
#        55540
#        72742
#        86827
#        104527
#        118917
#        139690
#        156797
#        177577
#        196435
#        212572
#        231837
#        249125
#        277707
#        293945
#        312732
#
# Disc length: 4461 seconds
#
# Revision: 2
# Processed by: cddbd v1.5.2PL0 Copyright (c) Steve Scherf et al.
# Submitted via: ExactAudioCopy v1.0b3
#
DISCID=0f116b12
DTITLE=Various Artist - Precious CD2
DYEAR=2004
DGENRE=Soul
TTITLE0=The Black Eyed Peas - Where Is The Love?
TTITLE1=Outkast - The Way You Move Featuring Sleepy Brown
TTITLE2=Alicia Keys - If I Ain't Got You
TTITLE3=Ashanti - Foolish
TTITLE4=R,Kelly - Ignition -Remix
TTITLE5=Craig David - 7 Days
TTITLE6=Pink - Get The Party Started
TTITLE7=Nelly Furtado - Turn Off The Light
TTITLE8=Shaggy - It Wasn't Me
TTITLE9=LL Cool J - Paradise Featuring Amerie
TTITLE10=Tina Novak - Been Around The World
TTITLE11=Christina Aguilera - What A Girl Wants
TTITLE12=TLC - Diggin' On You
TTITLE13=Musiq - forthenight Featuring Aaries
TTITLE14=Joe - All The Things (Your Man Won't Do)
TTITLE15=City High - Caramel
TTITLE16=India Arie - Video
TTITLE17=Monica - Before You Walk Out Of My Life
EXTD=
EXTT0=
EXTT1=
EXTT2=
EXTT3=
EXTT4=
EXTT5=
EXTT6=
EXTT7=
EXTT8=
EXTT9=
EXTT10=
EXTT11=
EXTT12=
EXTT13=
EXTT14=
EXTT15=
EXTT16=
EXTT17=
PLAYORDER=
